fd_2_states
version=1
nRows=43
nColumns=17
inDegrees=yes

# SIMM Motion File Header:
name fd_2_states
datacolumns 17
datarows 43
otherdata 1
range 0.833532 0.874508
endheader
time	/jointset/r_shoulder/r_shoulder_elev/value	/jointset/r_shoulder/r_shoulder_elev/speed	/jointset/r_elbow/r_elbow_flex/value	/jointset/r_elbow/r_elbow_flex/speed	/forceset/TRIlong/activation	/forceset/TRIlong/fiber_length	/forceset/TRIlat/activation	/forceset/TRIlat/fiber_length	/forceset/TRImed/activation	/forceset/TRImed/fiber_length	/forceset/BIClong/activation	/forceset/BIClong/fiber_length	/forceset/BICshort/activation	/forceset/BICshort/fiber_length	/forceset/BRA/activation	/forceset/BRA/fiber_length
      0.833532	      0.012282	     -0.024292	    116.629053	    140.098358	      0.020000	      0.178423	      0.330287	      0.111759	      0.327441	      0.106827	      0.992111	      0.072276	      0.225724	      0.073937	      0.020002	      0.057768
      0.834720	      0.012255	     -0.021013	    116.795453	    140.094418	      0.020000	      0.178475	      0.331343	      0.111813	      0.328536	      0.106881	      0.992568	      0.072141	      0.234043	      0.073748	      0.020002	      0.057699
      0.835907	      0.012231	     -0.019814	    116.961848	    140.088627	      0.020000	      0.178533	      0.332280	      0.111867	      0.329506	      0.106935	      0.992999	      0.072007	      0.241180	      0.073562	      0.020002	      0.057630
      0.836974	      0.012212	     -0.016515	    117.111293	    140.088069	      0.020000	      0.178579	      0.333030	      0.111916	      0.330283	      0.106984	      0.993365	      0.071886	      0.246741	      0.073397	      0.020002	      0.057568
      0.838041	      0.012195	     -0.015450	    117.260736	    140.085944	      0.020000	      0.178629	      0.333703	      0.111965	      0.330980	      0.107033	      0.993711	      0.071766	      0.251616	      0.073235	      0.020002	      0.057506
      0.839108	      0.012179	     -0.013560	    117.410179	    140.085934	      0.020000	      0.178677	      0.334308	      0.112014	      0.331606	      0.107082	      0.994039	      0.071645	      0.255900	      0.073076	      0.020002	      0.057444
      0.839773	      0.012170	     -0.013044	    117.503358	    140.085111	      0.020000	      0.178708	      0.334653	      0.112044	      0.331963	      0.107112	      0.994235	      0.071570	      0.258306	      0.072978	      0.020002	      0.057406
      0.840003	      0.012167	     -0.012849	    117.535623	    140.084798	      0.020000	      0.178718	      0.334770	      0.112055	      0.332083	      0.107123	      0.994301	      0.071545	      0.259117	      0.072945	      0.020002	      0.057392
      0.840117	      0.012166	     -0.012755	    117.551625	    140.084620	      0.020000	      0.178723	      0.334915	      0.112060	      0.332234	      0.107128	      0.994334	      0.071532	      0.260348	      0.072928	      0.020002	      0.057386
      0.840302	      0.012164	     -0.012602	    117.577423	    140.084289	      0.020000	      0.178732	      0.335172	      0.112069	      0.332500	      0.107137	      0.994386	      0.071511	      0.262543	      0.072901	      0.020002	      0.057375
      0.841222	      0.012152	     -0.011770	    117.706411	    140.081743	      0.020000	      0.178774	      0.336387	      0.112111	      0.333760	      0.107179	      0.994639	      0.071408	      0.272759	      0.072764	      0.020002	      0.057322
      0.845330	      0.012115	     -0.005865	    118.281732	    140.062341	      0.020000	      0.178963	      0.340617	      0.112297	      0.338144	      0.107365	      0.995638	      0.070948	      0.306498	      0.072141	      0.020002	      0.057084
      0.846244	      0.012110	     -0.004140	    118.409855	    140.061239	      0.020000	      0.179004	      0.341344	      0.112339	      0.338896	      0.107406	      0.995834	      0.070846	      0.312046	      0.072004	      0.020002	      0.057031
      0.847691	      0.012106	     -0.002614	    118.612443	    140.060815	      0.020000	      0.179071	      0.342367	      0.112405	      0.339954	      0.107472	      0.996125	      0.070686	      0.319737	      0.071791	      0.020002	      0.056948
      0.848821	      0.012104	     -0.000800	    118.770694	    140.063235	      0.020000	      0.179121	      0.343069	      0.112456	      0.340680	      0.107524	      0.996338	      0.070560	      0.324950	      0.071628	      0.020002	      0.056882
      0.849951	      0.012103	     -0.000733	    118.928946	    140.063737	      0.020000	      0.179175	      0.343696	      0.112508	      0.341329	      0.107576	      0.996540	      0.070435	      0.329565	      0.071469	      0.020002	      0.056817
      0.850070	      0.012103	     -0.000525	    118.945599	    140.064018	      0.020000	      0.179180	      0.343786	      0.112514	      0.341422	      0.107581	      0.996561	      0.070422	      0.330266	      0.071452	      0.020002	      0.056810
      0.850229	      0.012103	     -0.000318	    118.967865	    140.064267	      0.020000	      0.179187	      0.344005	      0.112521	      0.341650	      0.107589	      0.996588	      0.070404	      0.332079	      0.071430	      0.020002	      0.056801
      0.851023	      0.012103	      0.000286	    119.079194	    140.064350	      0.020000	      0.179223	      0.345047	      0.112557	      0.342736	      0.107625	      0.996721	      0.070317	      0.340657	      0.071317	      0.020002	      0.056755
      0.852626	      0.012104	      0.001291	    119.303607	    140.061747	      0.020000	      0.179296	      0.346912	      0.112630	      0.344679	      0.107697	      0.996974	      0.070140	      0.355768	      0.071085	      0.020002	      0.056663
      0.853977	      0.012107	      0.003011	    119.492845	    140.060259	      0.020000	      0.179357	      0.348269	      0.112691	      0.346093	      0.107759	      0.997172	      0.069991	      0.366602	      0.070890	      0.020002	      0.056585
      0.855113	      0.012111	      0.003383	    119.652063	    140.058932	      0.020000	      0.179411	      0.349279	      0.112742	      0.347143	      0.107810	      0.997329	      0.069866	      0.374588	      0.070726	      0.020002	      0.056520
      0.856250	      0.012116	      0.005703	    119.811280	    140.061985	      0.020000	      0.179460	      0.350180	      0.112794	      0.348081	      0.107861	      0.997477	      0.069742	      0.381687	      0.070564	      0.020002	      0.056454
      0.857387	      0.012123	      0.005407	    119.970502	    140.063231	      0.020000	      0.179516	      0.350986	      0.112846	      0.348919	      0.107913	      0.997616	      0.069617	      0.388012	      0.070404	      0.020001	      0.056389
      0.858365	      0.012129	      0.007579	    120.107518	    140.068403	      0.020000	      0.179557	      0.351612	      0.112890	      0.349569	      0.107958	      0.997730	      0.069510	      0.392909	      0.070269	      0.020001	      0.056332
      0.859344	      0.012136	      0.007587	    120.244538	    140.070664	      0.020000	      0.179603	      0.352179	      0.112935	      0.350159	      0.108003	      0.997839	      0.069403	      0.397357	      0.070135	      0.020001	      0.056276
      0.860012	      0.012142	      0.008026	    120.338181	    140.072171	      0.020000	      0.179633	      0.352553	      0.112966	      0.350547	      0.108033	      0.997910	      0.069330	      0.400305	      0.070044	      0.020001	      0.056238
      0.860138	      0.012143	      0.008071	    120.355760	    140.072310	      0.020000	      0.179639	      0.352702	      0.112971	      0.350703	      0.108039	      0.997923	      0.069317	      0.401564	      0.070028	      0.020001	      0.056231
      0.860476	      0.012145	      0.008189	    120.403143	    140.072502	      0.020000	      0.179655	      0.353129	      0.112987	      0.351148	      0.108054	      0.997958	      0.069280	      0.405193	      0.069982	      0.020001	      0.056211
      0.862167	      0.012160	      0.008972	    120.640056	    140.070838	      0.020000	      0.179732	      0.355063	      0.113064	      0.353166	      0.108131	      0.998124	      0.069096	      0.421549	      0.069750	      0.020001	      0.056114
      0.863762	      0.012175	      0.009601	    120.863473	    140.068159	      0.020000	      0.179805	      0.356615	      0.113136	      0.354783	      0.108203	      0.998268	      0.068923	      0.434630	      0.069529	      0.020001	      0.056023
      0.864769	      0.012185	      0.010982	    121.004469	    140.069016	      0.020000	      0.179850	      0.357476	      0.113182	      0.355681	      0.108249	      0.998353	      0.068814	      0.441901	      0.069390	      0.020001	      0.055965
      0.865989	      0.012199	      0.011032	    121.175432	    140.069982	      0.020000	      0.179908	      0.358413	      0.113237	      0.356657	      0.108304	      0.998451	      0.068682	      0.449835	      0.069224	      0.020001	      0.055895
      0.867019	      0.012211	      0.012773	    121.319677	    140.074541	      0.020000	      0.179952	      0.359121	      0.113284	      0.357395	      0.108351	      0.998528	      0.068571	      0.455863	      0.069085	      0.020001	      0.055836
      0.868049	      0.012224	      0.012538	    121.463925	    140.077269	      0.020000	      0.180001	      0.359762	      0.113331	      0.358062	      0.108398	      0.998602	      0.068460	      0.461348	      0.068947	      0.020001	      0.055777
      0.869079	      0.012238	      0.013638	    121.608177	    140.081361	      0.020000	      0.180046	      0.360342	      0.113378	      0.358665	      0.108445	      0.998673	      0.068349	      0.466346	      0.068811	      0.020001	      0.055718
      0.869660	      0.012245	      0.013567	    121.689528	    140.082112	      0.020000	      0.180073	      0.360644	      0.113405	      0.358980	      0.108472	      0.998711	      0.068287	      0.468968	      0.068736	      0.020001	      0.055685
      0.869962	      0.012250	      0.013626	    121.731971	    140.082316	      0.020000	      0.180087	      0.360796	      0.113419	      0.359137	      0.108486	      0.998730	      0.068254	      0.470284	      0.068696	      0.020001	      0.055668
      0.870083	      0.012251	      0.013652	    121.748831	    140.082329	      0.020000	      0.180093	      0.360885	      0.113424	      0.359230	      0.108491	      0.998738	      0.068241	      0.471085	      0.068681	      0.020001	      0.055661
      0.870203	      0.012253	      0.013680	    121.765691	    140.082301	      0.020000	      0.180098	      0.361023	      0.113430	      0.359376	      0.108497	      0.998745	      0.068228	      0.472364	      0.068665	      0.020001	      0.055654
      0.870805	      0.012261	      0.013842	    121.849992	    140.081617	      0.020000	      0.180126	      0.361693	      0.113457	      0.360077	      0.108524	      0.998782	      0.068164	      0.478540	      0.068587	      0.020001	      0.055620
      0.873814	      0.012305	      0.014356	    122.271485	    140.074288	      0.020000	      0.180264	      0.364511	      0.113594	      0.363029	      0.108661	      0.998953	      0.067842	      0.504744	      0.068188	      0.020001	      0.055448
      0.874508	      0.012315	      0.015374	    122.368733	    140.075269	      0.020000	      0.180295	      0.365053	      0.113626	      0.363596	      0.108693	      0.998988	      0.067768	      0.509847	      0.068096	      0.020001	      0.055408
